<svg fill="none" height="24" viewBox="0 0 14 24" width="14" xmlns="http://www.w3.org/2000/svg"><g fill="#0051bb"><path clip-rule="evenodd" d="m7.27549.629754c-.88733-.014955-2.66199.01346-2.66199.246763v2.220863c.08873.01496.2662.06281.2662.1346v.53839c-.01479.18694-.08873.60569-.2662.78516-.0184.0186-.05939.05558-.11909.10943-.66006.59541-3.607691 3.25436-3.607691 5.96994v8.0086l.310561 2.4676.31057.9197c.09581.477 1.38452 1.4294 5.76817 1.4357v.0001c.00732 0 .01462 0 .02192-.0001.00729.0001.0146.0001.02191.0001v-.0001c4.38365-.0063 5.67235-.9587 5.76815-1.4357l.3106-.9197.3106-2.4676v-8.0086c0-2.71558-2.9477-5.37453-3.6077-5.96994-.0597-.05385-.1007-.09083-.11912-.10943-.17747-.17947-.25141-.59822-.2662-.78516v-.53839c0-.07179.17746-.11964.2662-.1346v-2.220863c0-.233303-1.77466-.261718-2.66199-.246763l-.02245 11.556946z" fill-rule="evenodd"/><path d="m7.27549.629754.21302-.000414-.00041-.209053-.20902-.003523zm-2.66199 2.467626h-.21302v.18012l.17762.02994zm.2662.67299.21236.0168.00066-.00839v-.00841zm-.2662.78516.15147.14978zm-.11909.10943-.14268-.15818zm-3.607691 13.97854h-.213021v.0133l.001667.0133zm.310561 2.4676-.21135.0266.002675.0212.006853.0203zm.31057.9197.20885-.0419-.00268-.0133-.00435-.0129zm5.76817 1.4357h.21303v-.2127l-.21272-.0003zm0 .0001h-.21302v.213h.21302zm.02192-.0001.00017-.213h-.00034zm.02191.0001v.213h.21302v-.213zm0-.0001-.0003-.213-.21272.0003v.2127zm5.76815-1.4357-.2018-.0681-.0043.0129-.0027.0133zm.3106-.9197.2018.0681.0069-.0203.0026-.0212zm.3106-2.4676.2113.0266.0017-.0133v-.0133zm-3.6077-13.97854.1426-.15818zm-.11912-.10943.15142-.14978v-.00001zm-.2662-.78516h-.21302v.00841l.00066.00839zm.2662-.67299.03542.21006.1776-.02994v-.18012zm-2.66199-2.467626-.00359-.21299-.20902.003523-.00041.209053zm-.02245 11.556946-.21302.0004h.42604zm-2.47142-11.310183c0 .059582-.03002.097211-.04337.110358-.01148.01132-.0167.011424-.00278.005033.02708-.012431.08016-.028795.16516-.045413.16618-.03249.40452-.056795.6794-.073844.54693-.033923 1.20636-.037332 1.64697-.029906l.00718-.425981c-.44672-.00753-1.1183-.004209-1.68052.030662-.2797.017348-.54049.042957-.73478.080944-.09524.01862-.18773.042636-.26118.076356-.03634.016685-.08054.041307-.11846.078668-.03977.039187-.08366.104378-.08366.193123zm0 2.220863v-2.220863h-.42604v2.220863zm.2662.1346c0-.11166-.06878-.18247-.10687-.21378-.04151-.03412-.08852-.05686-.12496-.07184-.07487-.03079-.158-.04994-.21199-.05904l-.0708.42012c.03474.00586.08471.01812.12075.03294.01902.00782.02193.01144.01647.00695-.00335-.00275-.01425-.01218-.02509-.02989-.01169-.01909-.02355-.0485-.02355-.08546zm0 .53839v-.53839h-.42604v.53839zm-.32775.93494c.12839-.12984.20299-.32365.24763-.48164.04679-.16562.07111-.331.07946-.4365l-.42472-.0336c-.00644.08144-.02649.21891-.06473.35427-.0404.14299-.0915.24828-.14058.2979zm-.12787.11782c.05641-.05088.10394-.09362.12787-.11782l-.30294-.29957c-.01287.01302-.04731.04422-.1103.10104zm-3.53736 5.81177c0-1.28663.70181-2.58349 1.51293-3.65117.8066-1.06174 1.69585-1.8642 2.02443-2.1606l-.28537-.31635c-.33148.29902-1.24608 1.12374-2.07831 2.21922-.82771 1.08953-1.599722 2.47993-1.599722 3.9089zm0 8.0086v-8.0086h-.426042v8.0086zm.3089 2.441-.31057-2.4676-.422705.0532.310565 2.4676zm.30103.8782-.31056-.9198-.403652.1363.310562.9198zm5.56666 1.2908c-2.17898-.0031-3.57182-.2417-4.42405-.5301-.42612-.1442-.71021-.2986-.88906-.4365-.18346-.1416-.23696-.2504-.24652-.298l-.4177.0839c.03834.1909.18186.38.40397.5514.22672.1749.55675.3485 1.01274.5028.91199.3086 2.35534.5494 4.56001.5525zm-.21333.213v.0001h.42605v-.0001zm.21302.2131h.02209l-.00034-.4261c-.00722 0-.01447 0-.02175 0zm.04383-.4261c-.00728 0-.01452 0-.02174 0l-.00034.4261h.02208zm-.21302.213v.0001h.42604v-.0001zm.21333.213c2.20467-.0031 3.64804-.2439 4.56004-.5525.456-.1543.786-.3279 1.0127-.5028.2221-.1714.3656-.3605.404-.5514l-.4177-.0839c-.0096.0476-.0631.1564-.2465.298-.1789.1379-.463.2923-.8891.4365-.8522.2884-2.24507.527-4.42405.5301zm5.96974-1.5805.3105-.9198-.4036-.1363-.3106.9198zm.32-.9613.3106-2.4676-.4227-.0532-.3106 2.4676zm.3123-2.4942v-8.0086h-.4261v8.0086zm0-8.0086c0-1.42897-.772-2.81937-1.5997-3.9089-.8323-1.09548-1.7469-1.9202-2.0784-2.21922l-.28532.31635c.32862.2964 1.21782 1.09886 2.02442 2.1606.8111 1.06768 1.5129 2.36454 1.5129 3.65117zm-3.6781-6.12812c-.0629-.05682-.0974-.08802-.1103-.10103l-.30289.29956c.02393.0242.07146.06694.12787.11782zm-.1103-.10104c-.049-.04962-.1001-.15491-.14053-.2979-.03824-.13536-.05829-.27283-.06473-.35427l-.42472.0336c.00835.1055.03266.27088.07946.4365.04463.15799.11924.3518.24763.48164zm-.2046-.63537v-.53839h-.42604v.53839zm0-.53839c0 .03696-.01187.06637-.02355.08546-.01085.01771-.02174.02714-.02509.02989-.00546.00449-.00256.00087.01646-.00695.03605-.01482.08601-.02708.12078-.03294l-.07083-.42012c-.05398.0091-.13712.02825-.21199.05904-.03643.01498-.08344.03772-.12495.07184-.03809.03132-.10687.10212-.10687.21378zm.2662-.1346v-2.220863h-.42604v2.220863zm0-2.220863c0-.088745-.0439-.153936-.0837-.193123-.0379-.037361-.0821-.061983-.11843-.078668-.07344-.03372-.16593-.057736-.26117-.076356-.1943-.037987-.45509-.063596-.73478-.080944-.56223-.034871-1.2338-.038192-1.68052-.030662l.00718.425981c.44061-.007426 1.10003-.004017 1.64697.029906.27488.017049.51322.041354.6794.073844.085.016618.13808.032982.16516.045413.01391.006391.0087.006287-.00279-.005033-.01334-.013147-.04336-.050776-.04336-.110358zm-3.08803-.247177-.02245 11.55696.42604.0008.02245-11.556932zm-.0449.000828.02245 11.556932.42604-.0008-.02245-11.55696z"/></g></svg>