<svg fill="none" height="28" viewBox="0 0 17 28" width="17" xmlns="http://www.w3.org/2000/svg"><g fill="#0051bb"><path clip-rule="evenodd" d="m8.59752 27.0385c-.44544.0112-1.3363-.0133-1.3363-.2004v-1.5698c.10022-.1893.2873-.628.23385-.8685-.00615-.0277-.01316-.0746-.02252-.1374-.09235-.6191-.41441-2.7782-2.41622-3.2027-2.20489-.4676-3.40756-2.4049-3.40756-3.9748-.01113-.0891 0-.2939.13363-.4008.16704-.1336.4343-.5678.4343-.8684 0-.3007-.13363-.8017-.23386-.8685-.10022-.0668-.33407-.2672-.33407-.7682s.06682-.9686.26726-1.0355c.20044-.0668.30067-.4676.30067-.8016s-.16704-.8016-.30067-.9018-.26726-.3674-.26726-.8351c0-.4676.06682-.70139.26726-.90179.20044-.20041.30067-.53443.30067-.80164s-.13363-.80163-.30067-.96864c-.16704-.167-.26726-.46762-.26726-.83503 0-.36742.03341-.70143.26726-.86844s.30067-.53442.30067-.80163-.16704-.76823-.30067-.90184c-.13363-.1336-.26726-.80163-.26726-1.20245v-.70143c.09852-.51441 1.57878-1.5345 6.68133-1.56897v-.00089c.04483 0 .08939.00007.13368.00022.04431-.00015.08889-.00022.13374-.00022v.00089c5.10008.03448 6.57958 1.05447 6.67808 1.56884v.70136c0 .40079-.1336 1.06876-.2672 1.20235-.1335.13359-.3005.63457-.3005.90176s.0668.63457.3005.80156c.2338.167.2672.50098.2672.86836 0 .36739-.1002.66797-.2672.83497-.1669.16699-.3005.70136-.3005.96855s.1002.60117.3005.80157c.2004.20039.2672.43414.2672.90174s-.1336.7348-.2672.835c-.1335.1002-.3005.5678-.3005.9017 0 .334.1002.7348.3005.8016.2004.0668.2672.5344.2672 1.0354 0 .5009-.2338.7013-.3339.7681-.1002.0668-.2338.5678-.2338.8684s.2672.7347.4341.8683c.1336.1069.1447.3118.1336.4008 0 1.5698-1.2021 3.5069-3.406 3.9744-2.00085.4246-2.32276 2.5834-2.41506 3.2025-.00936.0628-.01636.1097-.02252.1374-.05342.2405.13357.6791.23375.8684v1.5697c0 .1543-.60612.198-1.06825.2023z" fill-rule="evenodd"/><path d="m8.59752 27.0385.02129.8518.83079-.0207v-.8311zm-1.3363-1.7702-.75303-.3988-.09905.1871v.2117zm.23385-.8685.83179-.1849zm-.02252-.1374.84275-.1257zm-2.41622-3.2027.17678-.8336zm-3.40756-3.9748h.85209v-.053l-.00659-.0527zm.13363-.4008.53223.6654h.00001zm.20044-1.7369.4726-.709zm-.06681-1.8037-.26941-.8083zm0-1.7034.5112-.6817h-.00001zm0-1.73689.60246.60259zm0-1.77028-.60246.60257zm0-1.70347-.4952-.69341zm0-1.70347-.60246.60257zm-.26726-1.90388-.83687-.16028-.015211.07942v.08086zm6.68133-1.56897.00575.85207.84633-.00572v-.84635zm0-.00089v-.852087h-.85209v.852087zm.13368.00022-.00285.8521.00569-.00002zm.13374-.00022h.85208v-.852087h-.85208zm0 .00089h-.85209v.84635l.84633.00572zm6.67808 1.56884h.8521v-.08084l-.0152-.07939zm-.2672 1.90371-.6025-.60246v.00001zm0 1.70332-.4953.69332zm0 1.70333-.6025-.60246zm0 1.77012-.6025.60244zm0 1.73674.5114.6816zm0 1.7033.2695-.8083zm.1336 3.5402.5324-.6653zm.1336.4008-.8455-.1056-.0066.0526v.053zm-3.406 3.9744.1769.8336zm-2.41506 3.2025.84276.1256zm-.02252.1374-.8318-.1848zm.23375.8684h.85203v-.2116l-.0989-.1871zm-1.06825 1.772-.00794-.8521-.84415.0079v.8442zm-2.18838-.2001c0 .4061.25193.6504.3865.7493.13513.0994.27412.1496.35634.1754.17471.0549.36909.0819.52474.0976.32696.033.69978.036.94209.0299l-.04258-1.7036c-.20313.0051-.49846.0014-.72829-.0218-.05533-.0056-.10086-.0118-.13627-.0179-.03756-.0065-.05178-.0109-.0489-.01.00216.0007.0155.0049.03632.0144.01944.0088.05869.0282.10601.063.08411.0618.3082.2644.3082.6237zm0-1.5698v1.5698h1.70416v-1.5698zm.25415-.6836c-.01025-.0461-.01095-.0787-.01088-.091.00007-.0132.00115-.0167-.00004-.0087-.00266.0178-.01051.0538-.02766.1071-.03484.1081-.08559.219-.11652.2774l1.50606.7975c.06929-.1309.16219-.334.23259-.5526.05577-.1732.16061-.5368.08002-.8995zm-.0335-.1966c.00676.0453.01903.1315.0335.1966l1.66357-.3698c.00184.0083.00252.0124.00204.0098-.00038-.0022-.00119-.0068-.00252-.0152-.00282-.0175-.00617-.04-.01108-.0728zm-1.75024-2.4949c.6793.1441 1.07952.5683 1.34209 1.0824.27346.5355.36265 1.1075.40815 1.4125l1.68551-.2514c-.04684-.3141-.16486-1.1312-.57596-1.9362-.42201-.8263-1.18372-1.6939-2.50623-1.9744zm-4.082861-4.8083c0 1.9448 1.457961 4.2516 4.082861 4.8083l.35356-1.6671c-1.78488-.3785-2.73225-1.9463-2.73225-3.1412zm.453481-1.0662c-.267089.2136-.374005.492-.41761.6744-.044031.1842-.046329.3612-.029289.4975l1.690999-.2114c.00591.0472.00361.0773-.00423.1101-.00741.031-.04195.1535-.17541.2602zm.11444-.203c0-.0431.00794-.0522-.00259-.0198-.00903.0277-.02558.0672-.05004.1126-.02421.0449-.04993.0842-.07088.1119-.01023.0135-.01667.0207-.01833.0225-.0028.0031.00616-.0072.0274-.0242l1.06447 1.3308c.21106-.1688.38494-.4235.49775-.633.11214-.2082.25639-.5411.25639-.9008zm.14564-.1595c-.07411-.0494-.12307-.1002-.1496-.1305-.0281-.0321-.04653-.0592-.05651-.0747-.01911-.0299-.02602-.0473-.02355-.0416.00438.01.0177.0452.0338.1052.01523.0568.02868.1198.03797.1794.00972.0622.01225.1038.01225.1217h1.70417c0-.2497-.05089-.5282-.10846-.7428-.02984-.1112-.06872-.2325-.11758-.3446-.02415-.0554-.05795-.1253-.10355-.1965-.03579-.0559-.12527-.188-.28375-.2936zm-.713561-1.4772c0 .8342.419421 1.2812.713561 1.4772l.94519-1.418c.0122.0081.02444.0177.03539.0287.01106.0111.01832.021.02245.0281.00428.0073.00201.006-.00177-.0085-.0039-.015-.01065-.049-.01065-.1075zm.849931-1.8438c-.32894.1096-.51017.3517-.59903.5092-.091824.1627-.141897.3331-.172142.4692-.06132.2759-.078759.5889-.078759.8654h1.704171c0-.2245.01596-.3958.03816-.4957.01151-.0518.01573-.0422-.0072-.0015-.01995.0353-.11767.1939-.34638.2701zm-.28201.0067c0 .0423-.00327.0887-.00981.1334-.00666.0455-.01522.079-.02161.0981-.00784.0235-.00537.005.02293-.0343.02669-.037.11537-.1456.2905-.2039l.53882 1.6167c.27535-.0917.45172-.2754.55358-.4169.10347-.1437.16858-.2958.21085-.4226.08448-.2534.11891-.5307.11891-.7705zm.04022-.2201c-.06953-.0522-.10726-.1008-.11798-.1151-.01381-.0183-.01833-.0276-.01548-.0223.00597.0109.02112.0427.03875.0943.01695.0496.03162.1043.04161.1563.01034.0538.01288.0903.01288.1069h1.70417c0-.2876-.06733-.5838-.14595-.814-.04084-.1195-.0925-.2443-.15544-.3597-.04946-.0906-.15612-.2718-.34016-.4098zm-.608141-1.5168c0 .5736.156846 1.1784.608151 1.5168l1.02238-1.3634c.05575.0418.08526.0807.09716.0983.01263.0188.0133.0251.00868.0124-.00961-.0264-.0322-.1084-.0322-.2641zm.516881-1.50436c-.440916.44083-.516881.95856-.516881 1.50436h1.704171c0-.2046.01618-.2846.02382-.3106.00223-.0076.00153-.0028-.00435.007-.00575.0095-.00904.0116-.00184.0044zm.05104-.19907c0 .03408-.00764.0886-.02657.14223-.0198.05609-.03672.06909-.02447.05684l1.20492 1.20516c.40369-.40365.55029-.98086.55029-1.40423zm-.05104-.36607c-.03642-.03642-.05414-.06428-.05723-.06918-.00426-.00674-.00241-.00481.00396.00895.01324.02858.03154.07667.0501.14093.0181.06264.03275.12778.04245.18567.00479.02854.00792.05266.00978.07152.00193.01965.00198.0287.00198.02818h1.70417c0-.24022-.05352-.52427-.12118-.75842-.03572-.12362-.08215-.25715-.14095-.3841-.05255-.11346-.14253-.28308-.28816-.42869zm-.516881-1.4376c0 .48596.127376 1.04817.516881 1.4376l1.20492-1.20514c.03437.03437.02746.04575.01197-.00212-.01446-.04469-.0296-.1215-.0296-.23034zm.624141-1.56185c-.33694.24062-.485484.57673-.552758.84578-.064407.25759-.071383.52109-.071383.71607h1.704171c0-.08059.0019-.1456.0062-.19987.00434-.05472.01028-.08679.01428-.10281.00394-.01577.00283-.00296-.01344.02438-.01828.03074-.04996.06992-.09667.10327zm-.05622-.10822c0 .03229-.00208.06772-.00666.10225-.00465.03498-.01096.06218-.01676.08062-.00604.0192-.00839.01901-.00035.00625.00869-.01378.03287-.04725.07999-.0809l.9904 1.38682c.32487-.232.47992-.56005.5557-.80113.07842-.24947.10185-.49833.10185-.69391zm-.05104-.29927c-.04108-.04108-.06105-.0726-.06308-.07576-.00417-.00648-.00225-.00432.00453.00944.0138.02801.03323.07443.05311.13406.01954.0586.03535.11751.04563.16768.01139.05561.01085.07553.01085.06385h1.70417c0-.26656-.07341-.55889-.14396-.77052-.03859-.11572-.08597-.23631-.14107-.34817-.04611-.09361-.13108-.25156-.26526-.38572zm-.516881-1.80502c0 .27593.043475.60488.102438.88.030006.14.068476.2872.116343.4212.03285.09195.1175.32325.2981.50382l1.20492-1.20514c.07228.07227.10308.13473.10476.13797.00624.01208.00449.01086-.00293-.00991-.01477-.04136-.03476-.11127-.05487-.20508-.04126-.1925-.06459-.39797-.06459-.52286zm0-.70143v.70143h1.704171v-.70143zm7.527651-2.421032c-2.59731.017543-4.33678.285184-5.46906.644372-.56549.17939-1.00993.39107-1.33878.62956-.30468.22096-.620287.5466-.7046.98682l1.67374.32056c-.03505.18302-.12868.18824.03136.07218.13586-.09853.39886-.24048.85358-.38473.90811-.28808 2.46004-.54771 4.96527-.56463zm.85784.852062v-.00089h-1.70417v.00089zm-.85208.85119c.04388 0 .08749.00007.13083.00022l.00569-1.70416c-.04524-.000151-.09075-.000227-.13652-.000227zm.26742-1.704167c-.04579 0-.09132.000076-.13659.000227l.00569 1.70416c.04336-.00015.08699-.00022.1309-.00022zm.85208.852977v-.00089h-1.70417v.00089zm-.85784.85207c2.50394.01692 4.05504.27654 4.96264.56456.4544.14422.7173.28613.853.38461.1599.116.0663.11076.0313-.07218l1.6738-.32045c-.0843-.44012-.3997-.76575-.7043-.98674-.3288-.23851-.7731-.45019-1.3383-.629575-1.1318-.359183-2.8705-.626807-5.46662-.644356zm5.83174.71677v.70136h1.7042v-.70136zm0 .70136c0 .12491-.0233.33037-.0646.52287-.0201.09381-.0401.16372-.0548.20508-.0074.02077-.0092.02199-.003.00992.0017-.00323.0325-.0657.1048-.13798l1.2051 1.20491c.1806-.18058.2652-.41185.298-.50378.0478-.13398.0863-.28116.1163-.42115.0589-.27508.1024-.60399.1024-.87987zm-.0176.5999c-.1342.13416-.2191.29211-.2652.3857-.0551.11184-.1024.23242-.141.34813-.0705.21161-.1439.50388-.1439.77038h1.7042c0 .01165-.0005-.00828.0109-.0639.0102-.05017.026-.10908.0456-.16768.0198-.05963.0393-.10605.0531-.13406.0067-.01376.0087-.01593.0045-.00945-.002.00317-.022.0347-.0631.07578zm-.5501 1.50421c0 .19554.0235.44436.1018.69378.0758.24101.2307.56907.5555.8011l.9907-1.38664c.0471.03368.0713.06717.08.08095.008.01276.0057.01294-.0004-.00627-.0058-.01845-.0121-.04566-.0167-.08065-.0046-.03453-.0067-.06997-.0067-.10227zm.6573 1.49488c-.0467-.03338-.0784-.07258-.0967-.10331-.0162-.02734-.0173-.04014-.0134-.02435.004.01603.01.04811.0143.10283.0043.05428.0062.11929.0062.19987h1.7042c0-.19495-.007-.4584-.0714-.71594-.0672-.26897-.2157-.60508-.5525-.84574zm-.0896.17504c0 .10886-.0151.18569-.0296.23039-.0155.04789-.0224.03651.012.00212l1.2051 1.20491c.3894-.38943.5167-.95156.5167-1.43742zm-.0176.23251c-.1456.14561-.2356.31524-.2881.42867-.0587.12693-.1051.26045-.1408.38405-.0677.23412-.1212.51812-.1212.75829h1.7042c0 .00051.0001-.00855.002-.0282.0018-.01887.005-.04299.0098-.07153.0097-.05789.0243-.12304.0424-.18568.0186-.06426.0368-.11235.0501-.14093.0064-.01377.0082-.0157.0039-.00896-.003.0049-.0208.03277-.0572.0692zm-.5501 1.57101c0 .42325.1465 1.0004.5501 1.40401l1.2051-1.2049c.0123.01228-.0046-.00071-.0244-.05682-.019-.05365-.0266-.10818-.0266-.14229zm.5501 1.40401c.0072.0072.0039.0051-.0019-.0044-.0059-.0098-.0066-.0146-.0043-.007.0076.026.0238.1061.0238.3107h1.7042c0-.5457-.0759-1.06338-.5167-1.5042zm.0176.2993c0 .1557-.0226.2377-.0322.2641-.0046.0127-.004.0064.0087-.0123.0119-.0177.0414-.0566.0971-.0984l1.0227 1.3632c.4511-.3385.6079-.9432.6079-1.5166zm.0736.1534c-.184.138-.2906.3192-.34.4098-.0629.1154-.1146.2401-.1554.3597-.0786.2302-.1459.5263-.1459.8138h1.7042c0-.0166.0025-.0531.0129-.107.01-.052.0246-.1066.0416-.1562.0176-.0516.0328-.0834.0387-.0944.0029-.0052-.0017.0041-.0155.0224-.0107.0142-.0484.0629-.1179.1151zm-.6413 1.5833c0 .2398.0344.5171.1189.7704.0422.1268.1073.2789.2107.4226.1018.1414.2782.3251.5535.4169l.539-1.6166c.1753.0584.2639.167.2906.204.0283.0393.0308.0578.0229.0343-.0064-.0192-.0149-.0526-.0216-.0982-.0065-.0446-.0098-.0911-.0098-.1334zm.8831 1.6099c-.2287-.0762-.3265-.2349-.3464-.2702-.0229-.0406-.0187-.0502-.0072.0016.0222.0999.0382.2712.0382.4957h1.7042c0-.2765-.0175-.5895-.0788-.8653-.0302-.1361-.0802-.3064-.172-.4692-.0888-.1574-.27-.3996-.599-.5092zm-.3154.2271c0 .0585-.0068.0925-.0107.1075-.0037.0145-.006.0158-.0017.0085.0041-.007.0113-.017.0224-.0281.011-.0109.0232-.0206.0354-.0287l.9455 1.4178c.2941-.1961.7133-.6431.7133-1.477zm.0454.0592c-.1584.1057-.2479.2378-.2836.2936-.0456.0712-.0794.1411-.1035.1965-.0489.112-.0877.2334-.1176.3446-.0575.2145-.1084.493-.1084.7426h1.7042c0-.0179.0025-.0595.0123-.1218.0092-.0595.0227-.1226.0379-.1793.0161-.06.0294-.0952.0338-.1053.0025-.0056-.0044.0118-.0235.0416-.01.0156-.0284.0426-.0565.0748-.0266.0303-.0755.0811-.1496.1305zm-.6131 1.5773c0 .3596.1442.6925.2563.9007.1127.2094.2865.4641.4976.633l1.0647-1.3307c.0212.017.0302.0273.0274.0243-.0017-.0018-.0081-.009-.0183-.0226-.021-.0277-.0467-.0669-.0709-.1118-.0244-.0454-.041-.0849-.05-.1126-.0105-.0325-.0026-.0233-.0026.0197zm.7539 1.5337c-.1335-.1068-.168-.2293-.1754-.2603-.0078-.0328-.0101-.0628-.0042-.1099l1.691.2113c.017-.1363.0147-.3132-.0293-.4974-.0436-.1824-.1504-.4607-.4174-.6744zm-.1862-.2646c0 1.195-.947 2.7625-2.7307 3.1409l.3537 1.6671c2.624-.5568 4.0812-2.8635 4.0812-4.808zm-2.7307 3.1409c-1.3222.2805-2.08356 1.1482-2.50534 1.9744-.4109.8049-.52886 1.6219-.57569 1.9359l1.68553.2513c.0455-.305.1346-.8769.408-1.4124.2624-.5141.6624-.9381 1.3412-1.0821zm-3.08103 3.9103c-.0049.0329-.00825.0553-.01106.0729-.00134.0083-.00215.013-.00253.0151-.00048.0027.0002-.0014.00204-.0097l1.66358.3696c.0145-.0651.0267-.1512.0335-.1966zm-.01155.0783c-.08054.3625.02423.7261.07998.8993.07036.2185.16321.4216.23247.5525l1.50623-.7973c-.031-.0584-.0817-.1692-.1165-.2774-.0172-.0533-.025-.0893-.0277-.1071-.0012-.008-.0001-.0045 0 .0087.0001.0123-.0006.0448-.0109.0909zm.21346 1.0532v1.5697h1.70412v-1.5697zm0 1.5697c0-.2919.15227-.4866.25033-.5762.08847-.0809.16754-.1125.18079-.1178.03103-.0125.0207-.0041-.0637.0083-.15225.0224-.37421.0339-.59152.0359l.01587 1.7041c.24482-.0023.55699-.0148.82333-.0539.1249-.0183.29498-.05.4541-.1142.07729-.0312.20732-.0916.33072-.2044.133-.1216.3042-.3514.3042-.6818zm.63592.2026v-.0003h-1.70417v.0003z"/></g></svg>