<svg fill="none" height="26" viewBox="0 0 9 26" width="9" xmlns="http://www.w3.org/2000/svg"><g fill="#0051bb"><path d="m2.18455.560608c0-.287949 1.53848-.311945 2.30772-.287949l-.10651 25.555441c-2.86868 0-3.869875-.7918-4.011888-1.1878-.094676-2.2076-.2840282-6.7236-.2840282-7.1267 0-.5039.4970482-1.9077.4970482-2.4116 0-.4031-.331365-1.5837-.4970482-2.1236v-5.25507c0-.92143.1893522-1.51173.2840282-1.6917l2.094708-2.95147v-.39593l-.28403-.25196z"/><path d="m6.51597.560527c0-.28787-1.53848-.311859-2.30772-.28787l.10651 25.548443c2.86868 0 3.86988-.7916 4.01189-1.1875.09467-2.207.28403-6.7217.28403-7.1247 0-.5038-.49705-1.9072-.49705-2.411 0-.403.33136-1.5832.49705-2.123v-5.25362c0-.92118-.18936-1.51131-.28403-1.69123l-2.09471-2.95067v-.39582l.28403-.25188z"/></g></svg>