<svg fill="none" height="26" viewBox="0 0 8 26" width="8" xmlns="http://www.w3.org/2000/svg"><g fill="#0051bb"><path clip-rule="evenodd" d="m4.14842 1.0293c-.3968 0-1.19042.04535-1.19042.22674v1.07705c0 .06613.03402.20974.17006.25509.13605.04535.05669.17006 0 .22675-.09447.04723-.27209.27776-.22674.82195.01613.19355.03684.39627.05823.60556.05378.52628.1118 1.0941.1118 1.66191 0 .25222-.21758 1.1658-.51445 2.41223-.6372 2.67542-1.639642 6.88432-1.639642 9.37862v6.1505c-.179483.4062.215432 1.2187 3.230822 1.2187v.0001c3.13904 0 3.55014-.8126 3.36331-1.2188v-6.1505c0-2.4942-1.04344-6.7032-1.7067-9.37859-.309-1.24644-.53549-2.16001-.53549-2.41223 0-.56781.0604-1.13563.11638-1.66191.02226-.20929.04382-.41201.06061-.60556.0472-.54419-.13768-.77472-.23602-.82196-.059-.05668-.14161-.18139 0-.22674s.17702-.18896.17702-.25509v-1.07705c0-.18135-.82562-.22672-1.23877-.22674z" fill-rule="evenodd"/><path d="m4.14842 1.0293h.21302v-.213024h-.21302zm-1.02036 1.55888.06737-.20209zm0 .22675.09527.19053.03092-.01546.02444-.02445zm-.22674.82195-.21229.01769zm.05823.60556-.21192.02165zm-.40265 4.07414.20723.04936zm-1.639642 15.52912.194852.0861.01817-.0412v-.0449zm3.230822 1.2187h.21302v-.213h-.21301zm0 .0001h-.21302v.213h.21302zm3.36331-1.2188h-.21302v.0466l.01949.0424zm-1.7067-15.52909-.20676.05126zm-.41911-4.07414.21182.02253zm.06061-.60556.21222.01841zm-.23602-.82196-.14758.15362.0246.02363.03074.01477zm0-.22674-.06497-.20287zm-1.06175-1.55888h-.21302v.213l.21301.00002zm-.9774.22671c0 .06409-.03724.09808-.04233.10229-.00408.00338.00306-.00324.0333-.01441.05862-.02164.15195-.04185.27136-.05823.23492-.03222.52203-.04337.71507-.04337v-.426044c-.20376 0-.51186.011518-.77295.047325-.12859.017635-.25846.042774-.36105.080652-.05035.018593-.10832.045279-.15736.085857-.05004.04141-.11208.1165-.11208.22593zm0 1.07705v-1.07705h-.42604v1.07705zm.02441.053c-.00358-.00119-.00484-.00226-.00583-.00319-.00154-.00144-.00453-.00483-.00796-.01153-.0035-.00685-.00646-.01522-.00843-.02394-.00206-.0091-.00219-.01469-.00219-.01434h-.42604c0 .06264.01473.14901.05741.2324.04473.08739.12571.18058.25831.22478zm.08326.57946c.03934-.03933.10644-.11949.12944-.22133.01283-.05682.01502-.13661-.02964-.21495-.04453-.07811-.11637-.12095-.18306-.14318l-.13473.40418c.00134.00044-.02941-.0098-.05233-.05-.02305-.04043-.01873-.077-.01582-.08989.00253-.01119.00527-.01266.00013-.00479-.00432.00664-.01026.01372-.01524.01871zm-.16509.65364c-.02061-.24731.0108-.40771.04751-.50325.03918-.102.0788-.11877.06222-.11048l-.19053-.38107c-.11106.05553-.20749.17764-.26939.33876-.06439.16758-.09912.39454-.07438.69142zm.05787.60159c-.02143-.2097-.04193-.41039-.05787-.60159l-.42457.03538c.01633.19589.03726.40065.0586.60952zm.1129 1.68357c0-.58043-.05929-1.15894-.1129-1.68357l-.42384.04331c.05395.52794.1107 1.08506.1107 1.64026zm-.52024 2.46159c.14826-.62252.27737-1.16459.36936-1.58251.04599-.20893.08317-.38895.10895-.5337.02493-.14001.04193-.26132.04193-.34538h-.42604c0 .04205-.0102.12952-.03534.27069-.02429.13644-.06006.31001-.10558.5168-.09102.41353-.21914.95147-.36773 1.57539zm-1.63385 9.32926c0-2.4631.99393-6.6425 1.63385-9.32926l-.41445-.09871c-.63448 2.66397-1.645443 6.90247-1.645443 9.42797zm0 6.1505v-6.1505h-.426043v6.1505zm3.01781 1.0057c-1.49722 0-2.3048-.2032-2.70939-.4299-.19945-.1117-.28655-.2209-.32154-.3001-.03367-.0762-.02671-.1406-.00505-.1896l-.389702-.1722c-.068083.1541-.079067.3436.00506.534.082812.1874.249242.3574.503012.4996.50184.2812 1.39942.4842 2.9176.4842zm-.21303.213v.0001h.42604v-.0001zm.21302.2131c1.57933 0 2.51043-.203 3.02981-.4825.2622-.1411.43522-.3103.52176-.4985.08838-.1921.07687-.3841.00528-.5398l-.38707.178c.02182.0475.02898.1093-.00527.1838-.03609.0785-.127.1885-.3366.3013-.42422.2283-1.26819.4316-2.82791.4316zm3.57633-1.4318v-6.1505h-.42604v6.1505zm0-6.1505c0-1.2699-.26474-2.9634-.60886-4.6636-.34482-1.7037-.77261-3.42912-1.1041-4.76625l-.41352.10252c.33177 1.33826.75733 3.05503 1.10005 4.74823.34341 1.6967.60039 3.3547.60039 4.5791zm-1.71296-9.42985c-.15468-.62394-.28801-1.16181-.38274-1.57526-.04737-.20676-.08458-.38022-.10984-.5165-.02617-.14122-.03665-.22801-.03665-.26921h-.42604c0 .08491.01784.20689.04379.34686.02686.1449.06558.32503.11346.534.09577.418.23018.96013.3845 1.58263zm-.52923-2.36097c0-.55469.05902-1.11137.11518-1.63938l-.42365-.04506c-.05579.52456-.11757 1.1035-.11757 1.68444zm.11518-1.63938c.02222-.20886.04401-.4137.06101-.60968l-.42444-.03682c-.01658.19111-.03791.39171-.06022.60144zm.06101-.60968c.02585-.29799-.01042-.52621-.07786-.69484-.06507-.16271-.16562-.28349-.27814-.33754l-.18448.38403c-.01418-.00681.02688.01129.06704.1117.03778.09449.07035.25363.049.49983zm-.30066-.99398c-.0054-.00519-.01166-.01239-.01614-.019-.00541-.00796-.00218-.00601.0007.00625.0034.01448.00776.05321-.01699.09492-.02385.04019-.05461.04899-.05018.04757l-.12994-.40574c-.06637.02125-.13992.06265-.18626.14075-.04725.07961-.0451.16157-.03137.21998.02432.10347.0948.18386.13502.2225zm-.08261.12974c.13376-.04284.21749-.13395.26464-.22246.04477-.08401.06043-.1715.06043-.2355h-.42605c0-.00105-.00003.00392-.00206.01251-.00193.00818-.00483.01611-.00832.02266-.00339.00636-.00649.0099-.00858.01177-.00157.00142-.00415.0034-.01.00528zm.32507-.45796v-1.07705h-.42605v1.07705zm0-1.07705c0-.11301-.06645-.18856-.11671-.22853-.04996-.039734-.10899-.065867-.16053-.084156-.10522-.037335-.239-.062291-.3724-.079875-.27064-.035675-.59042-.047192-.80213-.047205l-.00003.426046c.20143.00001.50103.01119.74649.04355.12465.01643.22309.03682.28559.059.03232.01146.04101.01863.03782.01609-.0035-.00278-.04415-.03724-.04415-.10492zm-1.66481-.22677v.00003h.42604v-.00003z"/></g></svg>