<svg fill="none" height="26" viewBox="0 0 24 26" width="24" xmlns="http://www.w3.org/2000/svg"><g fill="#0051bb"><path clip-rule="evenodd" d="m11.8555.691406c.5161 0 1.5482.03858 1.5482.1929v1.350294c.0727.09002.1439.28935-.1526.36651v.48225c.785.7073 2.3551 2.63501 2.3551 4.68745v16.24209c-.0146.2765-.0742.8565-.1963.9645-.1526.1351-1.6355.4244-3.5326.4244zm-.0002.000199c-.4553 0-1.3661.03858-1.3661.1929v1.350295c-.0641.09002-.127.28935.1347.36651v.48225c-.69266.7073-2.078 2.635-2.078 4.68745v16.24209c.01283.2765.06542.8565.17317.9645.13468.1351 1.44303.4244 3.11703.4244z" fill-rule="evenodd"/><path d="m11.8555.691406v-.213021h-.2132l.0002.213209zm1.5482 1.543194h-.213v.07527l.0473.05856zm-.1526.36651-.0537-.20616-.1593.04147v.16469zm0 .48225h-.213v.0948l.0704.06346zm2.3551 20.92954.213.0112v-.0112zm-.1963.9645-.1411-.1595zm-3.5326.4244-.213.0002.0002.2128h.2128zm-.022-24.710195.2131.000166.0001-.213187h-.2132zm-1.3661 1.543195.1735.12361.0396-.05549v-.06812zm.1347.36651h.213v-.15928l-.1527-.04504zm0 .48225.1522.14904.0608-.06211v-.08693zm-2.078 20.92954h-.21325l.00046.0099zm.17317.9645.15082-.1504zm3.11703.4244v.213h.2128l.0002-.2128zm1.7806-24.517694c0-.14836-.1199-.219908-.1569-.239929-.0535-.028964-.117-.048271-.1754-.062383-.1205-.02909-.2782-.049459-.4422-.064177-.3312-.029711-.7252-.039432-.9867-.039432v.426042c.2545 0 .6347.009569.9486.037728.1585.014217.2911.032428.3803.053974.0464.011211.0676.020231.0725.022911.0215.01163-.0662-.024955-.0662-.134734zm0 1.350294v-1.350294h-.426v1.350294zm-.312.57267c.1954-.05084.3451-.16709.372-.35426.0223-.15458-.0535-.28569-.1072-.35223l-.3315.26765c.0058.00714.0116.01696.0149.02568.0034.00897.0008.00771.0021-.00177.0008-.00527.0026-.01136.0057-.01715.0014-.00275.0029-.0049.0041-.00644s.0019-.0022.0018-.00211c-.0008.00071-.017.01475-.0692.02831zm.1594.27609v-.48225h-.426v.48225zm2.3551 4.68745c0-1.0785-.4115-2.11169-.913-2.95686-.5021-.84617-1.1048-1.52146-1.5125-1.88885l-.2852.31652c.3772.33991.9521.98211 1.4313 1.78974.4798.80863.8533 1.76552.8533 2.73945zm0 16.24209v-16.24209h-.4261v16.24209zm-.2682 1.1241c.0445-.0393.0735-.0876.0924-.1255.0202-.0404.0365-.0846.05-.1282.0271-.0871.0484-.1891.0651-.2901.0337-.203.0528-.4254.0604-.5691l-.4255-.0223c-.0069.1328-.0248.3387-.0552.5218-.0152.092-.0327.1725-.0516.2332-.0094.0303-.0179.0513-.0244.0644-.0077.0155-.0074.009.0066-.0033zm-3.6737.4778c.9588 0 1.8139-.073 2.4505-.1636.318-.0453.5841-.0953.7827-.1435.099-.024.1845-.0483.2527-.0724.0577-.0205.1343-.051.1878-.0983l-.2822-.3191c.0153-.0136.0122-.0055-.0478.0157-.0495.0176-.1198.038-.2109.0601-.1816.044-.4334.0917-.7423.1357-.6172.0878-1.4522.1594-2.3905.1594zm-.2348-24.923206.0218 24.710406.426-.0004-.0218-24.710382zm-.9402.192911c0 .04665-.0183.082125-.0343.102807-.0142.018398-.0271.025988-.0273.026168-.0013.00076.0021-.0014.0125-.00543.01-.00386.0237-.008401.0417-.013326.0751-.020559.1891-.03847.3282-.05261.2748-.027941.6085-.037488.8322-.037488v-.426042c-.2316 0-.5809.009743-.8753.039673-.1455.014794-.2877.035464-.3976.065541-.0533.014584-.1133.035098-.1645.066539-.0425.02602-.1417.099032-.1417.234168zm0 1.350295v-1.350295h-.4261v1.350295zm-.0181.16219c-.0402-.01184-.0496-.02303-.0476-.02087.0011.00115.0036.00411.0057.00878.0022.00455.0031.00858.0034.01115.0005.00412-.0007.00117.0029-.00965.0035-.01059.0092-.0211.0141-.02799l-.347-.24722c-.0486.06834-.1109.19427-.0926.33852.0099.07806.0433.1564.1072.22247.0619.06405.1427.10671.2334.13345zm.1527.68657v-.48225h-.426v.48225zm-2.07798 4.68745c0-.98015.33154-1.9406.75496-2.74935.42319-.80831.93032-1.45016 1.26222-1.78906l-.3044-.29809c-.3608.36841-.89262 1.04406-1.33527 1.88954-.44242.84504-.80355 1.87467-.80355 2.94696zm0 16.24209v-16.24209h-.42604v16.24209zm.11097.8141c.01361.0137.01374.0204.00628.0035-.00614-.014-.01388-.0358-.02239-.0668-.017-.062-.03259-.1436-.04611-.2361-.02693-.1843-.04279-.3911-.04898-.5245l-.42558.0197c.00663.143.02348.3645.053.5664.01469.1005.03326.2014.05682.2872.01178.0429.02592.0862.04333.1258.01609.0365.04144.085.08199.1257zm2.96621.3618c-.8253 0-1.5596-.0714-2.10183-.1588-.27142-.0438-.49199-.0912-.65029-.1347-.07947-.0218-.13983-.0418-.18166-.0586-.05176-.0207-.04947-.0268-.03243-.0097l-.30164.3009c.0507.0508.12335.0833.17545.1043.06205.0248.13907.0497.22736.0739.17722.0487.41361.099.69537.1445.56407.0909 1.32097.1642 2.16967.1642zm-.1938-24.497561-.0192 24.710461.426.0003.0193-24.710429z"/><g stroke="#0051bb" stroke-width=".426042"><path d="m1.4168 6.8326 5.13443-3.63671c.25352-.17956.23244.01025.19021.12761-.61275 1.53124-1.88896 4.75961-2.0918 5.42315s-.50711.51041-.50711 0c-.02113-.78689-.29158-2.01614-1.20437-.63802-1.14098 1.72265-2.245133 5.54577 0 10.08067 1.64822 3.3292 6.40219 5.5408 9.06444 5.9974-4.75406 0-9.50815-3.1901-10.90269-8.2304-1.394533-5.0404.95082-8.48569 1.20437-8.8685.25356-.38281-.2536.0638-.88748.19141-.507099.10208-.31689-.25521 0-.44661z"/><path d="m22.5881 18.8559-5.1344 3.6367c-.2536.1795-.2325-.0103-.1903-.1276.6128-1.5313 1.889-4.7596 2.0918-5.4232.2029-.6635.5071-.5104.5071 0 .0212.7869.2916 2.0162 1.2044.638 1.141-1.7226 1.8383-5.6145 0-10.08064-1.4139-3.43528-6.4022-5.54074-9.0645-5.99737 4.7541 0 9.5082 3.19009 10.9028 8.23043 1.3945 5.04038-.9508 8.48568-1.2044 8.86848s.2536-.0638.8875-.1914c.5071-.1021.3169.2552 0 .4466z"/></g></g></svg>